<?xml version="1.0" encoding="utf-8"?>
<!-- Generator: Adobe Illustrator 21.1.0, SVG Export Plug-In . SVG Version: 6.00 Build 0)  -->
<svg version="1.1" id="Capa_1" xmlns="http://www.w3.org/2000/svg" xmlns:xlink="http://www.w3.org/1999/xlink" x="0px" y="0px"
	 viewBox="0 0 799.2 117.8" style="enable-background:new 0 0 799.2 117.8;" xml:space="preserve">
<style type="text/css">
	.st0{fill:#F7B617;}
	.st1{fill:#f0f0f0;}
</style>
<path class="st0" d="M70.1,106.8c2,1.1,2,2.5,2,3.7v5.3c0,0.9-0.7,1.8-1.6,1.8c-0.5,0-0.9-0.4-1.2-0.4L2.8,82.3
	C1,81.4,0,80.4,0,78.9v-5.3c0-1.2,0.5-2.7,2.1-3.4l67.2-35.1c0.4-0.2,0.9-0.4,1.4-0.4c0.7,0,1.4,0.5,1.4,1.6v5.1
	c0,1.1-0.5,2.7-2.1,3.4L10.6,76.1L70.1,106.8z"/>
<path class="st0" d="M788.8,75.9l-59.6-31c-1.6-0.7-2.1-2.3-2.1-3.4v-5.1c0-1.1,0.7-1.6,1.4-1.6c0.5,0,0.9,0.2,1.4,0.4l67.2,35.1
	c1.6,0.7,2.1,2.1,2.1,3.4V79c0,1.4-0.9,2.5-2.8,3.4l-66.5,34.9c-0.5,0-0.7,0.4-1.2,0.4c-1.1,0-1.6-0.9-1.6-1.8v-5.3
	c0-1.2,0-2.7,1.9-3.7L788.8,75.9z"/>
<g>
	<path class="st1" d="M96.9,0h8c0.9,0,1.6,0.5,1.6,1.5v95.1c0,7.9,1.8,10.6,8.4,10.6h2c1.6,0,1.6,1.1,1.6,2.2v6.4
		c0,1.1-0.7,1.6-1.6,1.8c-1.8,0.2-3.5,0.2-4.4,0.2c-14.4,0-17.2-7.7-17.2-20.1v-96C95.4,0.8,95.8,0,96.9,0"/>
	<path class="st1" d="M234.1,117.4c-9.5,0-17.4-3.7-21.4-8.6l-0.4,0.2v6c0,1.1-0.4,1.5-1.6,1.5h-7.1c-1.1,0-1.6-0.2-1.6-1.3V1.7
		c0-1.1,0.5-1.6,1.6-1.6h8.2c1.1,0,1.3,0.5,1.3,1.5V44l0.5,0.2c4-4.4,12.1-8.2,21.6-8.2c21,0,28.7,15,28.7,30.3v21.9
		C263.9,105.2,253.5,117.4,234.1,117.4 M252.8,66c0-11.2-5.7-20.7-19.7-20.7c-11.7,0-19.9,9.3-19.9,20.5v22.3
		c0,11.2,8.2,19.9,19.7,19.9c13.7,0,19.9-8.4,19.9-20.1V66z"/>
	<path class="st1" d="M307,117.6c-19.7,0-31.1-11.1-31.1-30V65.5c0-17.9,11.3-29.8,30.9-29.8c19.4,0,30.9,11.2,30.9,29.8v21.9
		C337.8,106.6,326.1,117.6,307,117.6 M326.8,65.7c0-11.7-6.6-20.3-19.7-20.3c-11.9,0-19.9,8.4-19.9,20.1v22.1
		c0,12.1,6.2,20.5,19.7,20.5s19.7-8.2,19.9-20.7V65.7z"/>
	<path class="st1" d="M454.1,18c0-0.7,0.4-1.5,1.5-1.8l7.7-1.8c1.3-0.4,1.8,0.5,1.8,1.5v19.7h20.1c0.9,0,1.5,0.4,1.5,1.5v6.4
		c0,1.1-0.4,1.6-1.5,1.6h-20.1v48.5c0,9.1,2.7,13.7,10.8,13.7c3.8,0,8.4-0.5,11.2-1.3c2-0.4,2.6,0.5,2.7,1.6l1.1,5.7
		c0.2,1.5,0,1.8-1.5,2.4c-3.7,1.5-10.8,2-15.2,2c-15.7,0-20.1-9.3-20.1-21.9V18z"/>
	<path class="st1" d="M529.7,117.6c-19.7,0-31.1-11.1-31.1-30V65.5c0-17.9,11.3-29.8,30.9-29.8c19.4,0,30.9,11.2,30.9,29.8v21.9
		C560.4,106.6,548.7,117.6,529.7,117.6 M549.5,65.7c0-11.7-6.6-20.3-19.7-20.3c-11.9,0-19.9,8.4-19.9,20.1v22.1
		c0,12.1,6.2,20.5,19.7,20.5s19.7-8.2,19.9-20.7V65.7z"/>
	<path class="st1" d="M626.7,20c-4,0-7.3-3.1-7.3-7.5c0-4,3.3-7.1,7.3-7.1c4.2,0,7.5,3.1,7.5,7.1S630.8,20,626.7,20 M620.9,37
		c0-1.1,0.5-1.5,1.5-1.5h8.2c1.1,0,1.6,0.5,1.6,1.5v78.2c0,0.9-0.4,1.3-1.5,1.3h-8.2c-0.9,0-1.6-0.4-1.6-1.3V37z"/>
	<path class="st1" d="M161.7,35.5h-14.3c-0.7,0-1.2,0.5-1.2,1.2V44c0,0.7,0.5,1.2,1.2,1.2h13.2c13.7,0,18.1,7.1,18.1,17v7.9
		l-0.7,0.4c-4.4-4.9-12.1-7.7-18.6-7.7c-18.6,0-28.7,12.3-28.7,27.6c0,16.1,9.7,27.2,27.2,27.2c8,0,16.1-2.6,20.8-9l0.9,0.2v6.4
		c0,0.5,0.2,1.3,1.3,1.3h7.5c0.9,0,1.5-0.6,1.5-1.6V63.7C189.8,46.1,182.5,35.5,161.7,35.5 M159.5,108.3c-12.8,0-18.5-8-18.5-18.3
		c0-10.1,6.9-18.3,18.6-18.3c11.9,0,18.3,8.2,18.3,18.1C177.9,100,170.4,108.3,159.5,108.3"/>
	<path class="st1" d="M413.8,35.5h-14.3c-0.7,0-1.2,0.5-1.2,1.2V44c0,0.7,0.5,1.2,1.2,1.2h13.2c13.7,0,18.1,7.1,18.1,17v7.9
		l-0.7,0.4c-4.4-4.9-12.1-7.7-18.6-7.7c-18.6,0-28.7,12.3-28.7,27.6c0,16.1,9.7,27.2,27.2,27.2c8,0,16.1-2.6,20.8-9l0.9,0.2v6.4
		c0,0.5,0.2,1.3,1.3,1.3h7.5c0.9,0,1.5-0.6,1.5-1.6V63.7C441.9,46.1,434.6,35.5,413.8,35.5 M411.6,108.3c-12.8,0-18.5-8-18.5-18.3
		c0-10.1,6.9-18.3,18.6-18.3c11.9,0,18.3,8.2,18.3,18.1C430.1,100,422.6,108.3,411.6,108.3"/>
	<path class="st1" d="M675.6,35.5h-14.3c-0.7,0-1.2,0.5-1.2,1.2V44c0,0.7,0.5,1.2,1.2,1.2h13.2c13.7,0,18.1,7.1,18.1,17v7.9
		l-0.7,0.4c-4.4-4.9-12.1-7.7-18.6-7.7c-18.6,0-28.7,12.3-28.7,27.6c0,16.1,9.7,27.2,27.2,27.2c8,0,16.1-2.6,20.8-9l0.9,0.2v6.4
		c0,0.5,0.2,1.3,1.3,1.3h7.5c0.9,0,1.5-0.6,1.5-1.6V63.7C703.7,46.1,696.4,35.5,675.6,35.5 M673.4,108.3c-12.8,0-18.5-8-18.5-18.3
		c0-10.1,6.9-18.3,18.6-18.3c11.9,0,18.3,8.2,18.3,18.1C691.8,100,684.3,108.3,673.4,108.3"/>
	<path class="st1" d="M380.1,45.3c-13.2,0-19,11.6-19,24V115c0,1.1-0.4,1.5-1.5,1.5h-8.2c-0.9,0-1.6-0.4-1.6-1.3v-77
		c0-1.1,0.5-1.5,1.5-1.5h7.1c1.1,0,1.5,0.6,1.5,1.5v10.1h0.5c4.4-7.1,13-12.8,22.1-12.8h2.6c0.7,0,1.2,0.5,1.2,1.2v7.4
		c0,0.7-0.5,1.2-1.2,1.2L380.1,45.3z"/>
	<path class="st1" d="M602.8,45.3c-13.2,0-19,11.6-19,24V115c0,1.1-0.4,1.5-1.5,1.5h-8.2c-0.9,0-1.6-0.4-1.6-1.3v-77
		c0-1.1,0.5-1.5,1.5-1.5h7.1c1.1,0,1.5,0.6,1.5,1.5v10.1h0.5c4.4-7.1,13-12.8,22.1-12.8h2.6c0.7,0,1.2,0.5,1.2,1.2v7.4
		c0,0.7-0.5,1.2-1.2,1.2L602.8,45.3z"/>
</g>
</svg>
